<mxfile host="65bd71144e">
    <diagram id="JcYlRr5xBGq-pKlCf1Mg" name="Page-1">
        <mxGraphModel dx="576" dy="300" grid="1" gridSize="10" guides="1" tooltips="1" connect="1" arrows="1" fold="1" page="1" pageScale="1" pageWidth="850" pageHeight="1100" math="0" shadow="0">
            <root>
                <mxCell id="0"/>
                <mxCell id="1" parent="0"/>
                <mxCell id="2" value="Clase 6&lt;br&gt;- Crear componente HeaderComponent&lt;br&gt;- Que reciba tres parametros, dos obligatorios y uno opcional&lt;br&gt;- El opcional debe ser un componente" style="rounded=0;whiteSpace=wrap;html=1;align=left;" vertex="1" parent="1">
                    <mxGeometry x="20" y="20" width="530" height="220" as="geometry"/>
                </mxCell>
            </root>
        </mxGraphModel>
    </diagram>
</mxfile>